<?xml version="1.0"?>
<svg width="24.000000000000004" height="24.000000000000004" xmlns="http://www.w3.org/2000/svg" xmlns:svg="http://www.w3.org/2000/svg" xmlns:xlink="http://www.w3.org/1999/xlink">
 <g class="layer">
  <title>Layer 1</title>
  <rect fill="#4caf50" height="26.54" id="svg_5" transform="matrix(1 0 0 1 0 0)" width="32.76" x="-4.33" y="-0.6"/>
  <rect fill="#4caf50" height="0" id="svg_4" width="0" x="-12.15" y="9.79"/>
  <use fill="#ffffff" id="svg_13" transform="matrix(0.0389532 0 0 0.0392439 81.9462 18.6755)" x="-2253.3" xlink:href="#svg_11" y="-575.51"/>
 </g>
 <defs>
  <symbol enable-background="new 0 0 50 50" height="800px" id="svg_11" version="1.1" viewBox="0 0 50 50" width="800px" xml:space="preserve" xmlns="http://www.w3.org/2000/svg" xmlns:xlink="http://www.w3.org/1999/xlink">
   <path d="m36.48,8.94c-2.99,0 -5.46,2.23 -5.89,5.14l-15.15,0c-0.4,0 -0.77,0.24 -0.92,0.61c-0.16,0.37 -0.08,0.8 0.2,1.09l10.74,10.92l0,12.24l-2.49,0c-0.55,0 -1,0.45 -1,1s0.45,1 1,1l6.98,0c0.56,0 1,-0.45 1,-1s-0.44,-1 -1,-1l-2.49,0l0,-12.24l6.26,-6.36c0.84,0.45 1.78,0.69 2.76,0.69c3.28,0 5.96,-2.71 5.96,-6.05s-2.68,-6.04 -5.96,-6.04zm-1.38,7.14l-8.64,8.79l-8.64,-8.79l17.28,0zm1.38,2.95c-0.44,0 -0.86,-0.07 -1.27,-0.21l2.99,-3.04c0.28,-0.29 0.37,-0.72 0.21,-1.09c-0.16,-0.37 -0.52,-0.61 -0.92,-0.61l-4.86,0c0.4,-1.8 1.97,-3.14 3.85,-3.14c2.18,0 3.96,1.81 3.96,4.04s-1.78,4.05 -3.96,4.05z"/>
  </symbol>
 </defs>
</svg>