<?xml version="1.0"?>
<svg width="24" height="24" xmlns="http://www.w3.org/2000/svg" xmlns:svg="http://www.w3.org/2000/svg">
 <g class="layer">
  <title>Layer 1</title>
  <rect fill="#4caf50" height="26.44" id="svg_2" width="35.44" x="-3.55" y="-0.82"/>
  <path clip-rule="evenodd" d="m4.55,2.68c0.14,-0.4 0.52,-0.68 0.95,-0.68l13,0c0.43,0 0.81,0.28 0.95,0.68l0.77,2.32l0.28,0c0.55,0 1,0.45 1,1c0,0.55 -0.45,1 -1,1l-1,0l-0.09,0l-1.41,14.1c-0.06,0.51 -0.49,0.9 -1,0.9l-10,0c-0.51,0 -0.94,-0.39 -1,-0.9l-1.4,-14.1l-0.1,0l-1,0c-0.55,0 -1,-0.45 -1,-1c0,-0.55 0.45,-1 1,-1l0.28,0l0.77,-2.32zm2.05,4.32l1.3,13l8.19,0l1.3,-13l-10.79,0zm11.51,-2l-12.22,0l0.33,-1l11.56,0l0.33,1z" fill="#ffffff" fill-rule="evenodd" id="svg_1"/>
 </g>
</svg>