<?xml version="1.0"?>
<svg width="384.023" height="384.023" xmlns="http://www.w3.org/2000/svg" xmlns:svg="http://www.w3.org/2000/svg" version="1.1" xml:space="preserve">
 <g class="layer">
  <title>Layer 1</title>
  <rect fill="#4caf50" height="461" id="svg_3" stroke="#000000" width="580" x="-108.19" y="-32.82"/>
  <g id="svg_1">
   <g id="Layer_5_21_">
    <path d="m310.72,42.23l-17.83,10.26c-1.4,0.81 -2.77,-0.89 -3.48,-1.7c-15.99,-18.22 -41.87,-22.85 -65.5,-9.25l-133.14,76.59c-23.66,13.61 -38.24,41.55 -38.29,69.04c0,1.19 0.2,3.5 -1.31,4.36l-17.85,10.27c-21.54,12.4 -31.23,45.02 -21.59,72.73c9.64,27.7 35.01,40.15 56.57,27.76c0,0 1.15,-0.19 1.75,2.39c0.97,4.19 1.19,5.42 2.62,9.52c13.08,37.6 51.72,52.09 86.12,32.3l152.24,-87.58c34.4,-19.79 51.61,-66.41 38.66,-104.07c-1.02,-2.95 -1.55,-4.89 -3.56,-8.41c-1.79,-3.15 -0.43,-3.72 -0.43,-3.72c21.55,-12.4 31.23,-45.03 21.59,-72.73c-9.63,-27.71 -35.01,-40.17 -56.57,-27.77zm-212.61,96.97l133.14,-76.59c13.96,-8.02 28.82,-7.62 39.67,-0.43c0.78,0.52 2.34,1.59 0.84,2.47l-199.05,114.5c-1.86,1.07 -1.63,-0.32 -1.5,-1.01c2.77,-15.63 12.58,-30.7 26.9,-38.94zm205.59,98.65l-152.24,87.58c-25.36,14.58 -53.34,5.32 -62.38,-20.65c-9.05,-25.98 4.24,-58.98 29.6,-73.56l152.24,-87.58c25.35,-14.58 53.34,-5.32 62.38,20.65s-4.24,58.97 -29.6,73.56zm31.36,-160.44c-11.23,6.47 -18.4,6.23 -24.72,6.04c-5.75,-0.18 -10.71,-0.34 -19.41,4.67c-8.7,5.01 -11.91,9.87 -15.64,15.5c-4.09,6.19 -8.74,13.21 -19.97,19.68c-11.24,6.45 -18.41,6.23 -24.73,6.03c-5.74,-0.18 -10.7,-0.33 -19.4,4.67c-8.7,5.01 -11.91,9.87 -15.64,15.5c-4.09,6.19 -8.74,13.21 -19.97,19.66s-18.41,6.25 -24.72,6.04c-5.75,-0.18 -10.71,-0.33 -19.41,4.67c-8.7,5.01 -11.91,9.87 -15.64,15.5c-4.09,6.19 -8.73,13.2 -19.97,19.66c-11.24,6.47 -18.4,6.25 -24.72,6.04c-5.75,-0.18 -10.7,-0.33 -19.4,4.67c-3.1,1.79 -6.74,0 -8.12,-3.99s0,-8.65 3.1,-10.43c11.23,-6.47 18.4,-6.25 24.72,-6.04c5.74,0.18 10.7,0.33 19.4,-4.67c8.7,-5.01 11.91,-9.87 15.64,-15.5c4.09,-6.19 8.74,-13.21 19.97,-19.66c11.24,-6.47 18.41,-6.25 24.73,-6.04c5.74,0.18 10.7,0.33 19.4,-4.67c8.7,-5.01 11.91,-9.87 15.64,-15.5c4.09,-6.19 8.73,-13.21 19.97,-19.66s18.41,-6.25 24.72,-6.04c5.75,0.18 10.71,0.33 19.41,-4.67c8.7,-5.01 11.91,-9.87 15.64,-15.5c4.09,-6.19 8.74,-13.21 19.97,-19.68s18.41,-6.23 24.73,-6.04c5.74,0.18 10.7,0.34 19.4,-4.67c3.1,-1.77 6.74,0 8.12,3.99s0,8.65 -3.1,10.44z" fill="#ffffff" id="svg_2"/>
   </g>
  </g>
 </g>
</svg>