<?xml version="1.0"?>
<svg width="24" height="24" xmlns="http://www.w3.org/2000/svg" xmlns:svg="http://www.w3.org/2000/svg" xmlns:xlink="http://www.w3.org/1999/xlink">
 <g class="layer">
  <title>Layer 1</title>
  <rect fill="#4caf50" height="26.75" id="svg_6" width="35.44" x="-4.93" y="-1.36"/>
  <use fill="#ffffff" id="svg_4" transform="matrix(0.02338 0 0 0.0232564 27.5633 -2.77569)" x="-1077.22" xlink:href="#svg_3" y="231.73"/>
  <rect fill="#ffffff" height="0" id="svg_5" width="0" x="-3.8" y="6.12"/>
 </g>
 <defs>
  <symbol enable-background="new 0 0 122.88 115.21" height="800px" id="svg_3" version="1.1" viewBox="0 -3.84 122.88 122.88" width="800px" xml:space="preserve" xmlns="http://www.w3.org/2000/svg" xmlns:xlink="http://www.w3.org/1999/xlink">
   <g>
    <path d="m29.03,100.46l20.79,-25.21l9.51,12.13l-18.33,23.31c-7.02,8.92 -20.01,-0.48 -11.97,-10.23l0,0zm24.28,-57.41c1.98,-6.46 1.07,-11.98 -6.37,-20.18l-18.18,-21.87c-2.58,-3.03 -8.66,1.42 -6.12,5.09l14.54,17.91c2.75,3.34 -2.36,7.76 -5.2,4.32l-15.04,-18.52c-2.8,-3.21 -8.59,1.03 -5.66,4.7c4.24,5.1 10.8,13.43 15.04,18.53c2.94,2.99 -1.53,7.42 -4.43,3.69l-14.93,-18.4c-2.19,-2.38 -5.77,-0.9 -6.72,1.88c-1.02,2.97 1.49,5.14 3.2,7.34l16.66,21.52c5.17,5.99 10.95,9.54 17.67,7.53c1.03,-0.31 2.29,-0.94 3.64,-1.77l44.76,57.78c2.41,3.11 7.06,3.44 10.08,0.93l0.69,-0.57c3.4,-2.83 3.95,-8 1.04,-11.34l-47.4,-54.46c1.38,-1.54 2.39,-3 2.73,-4.11l0,0zm12.67,12.6l7.37,-8.94c-9.48,-23.5 25.65,-54.82 42.68,-40.42c20.69,17.51 -10.06,59.71 -31.67,49.28l-8.73,11.09l-9.65,-11.01l0,0z"/>
   </g>
  </symbol>
 </defs>
</svg>