<?xml version="1.0"?>
<svg width="16" height="16" xmlns="http://www.w3.org/2000/svg" xmlns:svg="http://www.w3.org/2000/svg" class="bi bi-badge-wc">
 <g class="layer">
  <title>Layer 1</title>
  <rect fill="#4caf50" height="20" id="svg_4" transform="matrix(1 0 0 1 0 0)" width="36" x="-10" y="-3"/>
  <path d="m10.47,7.76c0,-1.47 0.54,-2.32 1.46,-2.32c0.75,0 1.25,0.62 1.31,1.47l1.27,0l0,-0.15c-0.06,-1.58 -1.13,-2.65 -2.59,-2.65c-1.78,0 -2.79,1.39 -2.79,3.64l0,0.98c0,2.25 1,3.63 2.79,3.63c1.45,0 2.52,-1.06 2.59,-2.57l0,-0.16l-1.27,0c-0.04,0.82 -0.54,1.39 -1.31,1.39c-0.93,0 -1.46,-0.82 -1.46,-2.29l0,-0.98zm-6.52,4.45l1.13,-5.54l0.04,0l1.13,5.54l1.12,0l1.6,-7.95l-1.31,0l-0.91,5.78l-0.07,0l-1.07,-5.78l-1.04,0l-1.07,5.78l-0.07,0l-0.91,-5.78l-1.31,0l1.6,7.95l1.12,0z" fill="#ffffff" id="svg_1" transform="rotate(-0.0000485538 7.87217 8.24898)"/>
  <path d="m-55.88,89.5a1.44,0.5 0 0 1 1.44,0.5l0,4a1.44,0.5 0 0 1 -1.44,0.5l-17.25,0a1.44,0.5 0 0 1 -1.44,-0.5l0,-4a1.44,0.5 0 0 1 1.44,-0.5l17.25,0zm-17.25,-0.5a2.88,1 0 0 0 -2.88,1l0,4a2.88,1 0 0 0 2.88,1l17.25,0a2.88,1 0 0 0 2.88,-1l0,-4a2.88,1 0 0 0 -2.88,-1l-17.25,0z" id="svg_2" transform="matrix(1 0 0 1 0 0)"/>
  <path d="m-234,126c1.03,1.14 1.57,1.74 2.16,2.44c0.64,0.76 1.27,1.55 1.83,2.36c0.56,0.81 0.82,1.23 1.3,2.11c0.76,1.41 0.98,1.92 1.44,2.99c0.23,0.54 0.46,1.07 0.84,2.14c0.18,0.51 0.6,1.89 0.72,2.69c0.16,1.04 0.14,1.67 0.14,2.87c0,0.86 0,1.63 0,2.59c0,1.01 -0.21,1.96 0.1,2.61c0.42,0.9 1.06,0.37 0.76,-0.58c-0.28,-0.89 -0.58,-1.67 -0.72,-2.14c-0.34,-1.08 -0.72,-2.4 -0.92,-3.13c-0.21,-0.77 -0.41,-1.58 -0.59,-2.42c-0.19,-0.86 -0.39,-1.74 -0.64,-3.54c-0.13,-0.9 -0.2,-1.8 -0.26,-2.71c-0.06,-0.91 -0.09,-1.83 -0.11,-2.76c-0.02,-0.94 -0.02,-1.9 -0.03,-3.86c0,-1.01 0,-2.03 0.01,-3.05c0.01,-1.02 0.03,-2.03 0.08,-3.02c0.04,-0.96 0.07,-1.89 0.31,-3.59c0.11,-0.77 0.27,-1.5 0.48,-2.17c0.2,-0.66 0.46,-1.29 0.76,-1.91c0.31,-0.63 0.67,-1.27 1.57,-2.59c0.49,-0.73 1.05,-1.48 1.66,-2.25c0.64,-0.81 1.34,-1.63 2.1,-2.45c0.78,-0.84 1.59,-1.71 3.47,-3.3c0.96,-0.81 2,-1.57 3.06,-2.31c1.06,-0.75 2.15,-1.46 3.24,-2.16c1.07,-0.69 2.14,-1.35 4.14,-2.69c0.95,-0.64 1.85,-1.28 2.72,-1.91c0.86,-0.63 1.72,-1.26 2.58,-1.88c0.88,-0.63 1.77,-1.28 3.73,-2.54c1.04,-0.67 2.16,-1.32 3.31,-1.99c1.19,-0.69 2.41,-1.38 3.66,-2.09c1.26,-0.71 2.55,-1.43 5.08,-2.92c1.26,-0.75 2.5,-1.51 3.72,-2.27c1.2,-0.75 2.36,-1.5 3.48,-2.23c1.09,-0.71 2.12,-1.39 4.04,-2.67c0.87,-0.58 1.69,-1.12 2.45,-1.63c0.71,-0.47 1.37,-0.91 1.97,-1.32c0.56,-0.38 1.09,-0.73 2,-1.38c0.41,-0.29 0.78,-0.56 1.12,-0.82c0.32,-0.25 0.62,-0.49 0.89,-0.72c0.27,-0.23 0.52,-0.46 1,-0.95c0.25,-0.25 0.49,-0.52 0.73,-0.8c0.25,-0.28 0.5,-0.58 0.76,-0.89c0.27,-0.31 0.54,-0.64 1.12,-1.32c0.31,-0.36 0.63,-0.73 0.97,-1.12c0.36,-0.42 0.74,-0.88 1.14,-1.37c0.43,-0.54 0.9,-1.13 1.91,-2.5c0.57,-0.78 1.16,-1.63 1.78,-2.53c0.66,-0.95 1.35,-1.95 2.08,-2.97c0.75,-1.06 1.51,-2.15 3.17,-4.33c0.84,-1.11 1.72,-2.2 2.62,-3.3c0.89,-1.1 1.8,-2.18 2.7,-3.27c0.9,-1.08 1.8,-2.14 3.51,-4.27c0.84,-1.04 1.65,-2.08 2.43,-3.11c0.77,-1.02 1.52,-2.05 2.24,-3.08c0.72,-1.02 1.43,-2.05 2.76,-4.14c0.67,-1.05 1.3,-2.11 1.91,-3.17c0.6,-1.05 1.16,-2.09 1.67,-3.13c0.5,-1 0.98,-1.98 1.64,-3.87c0.3,-0.88 0.51,-1.73 0.67,-2.58c0.15,-0.84 0.25,-1.69 0.32,-2.57c0.07,-0.91 0.11,-1.88 0.22,-4.02c0.06,-1.19 0.14,-2.46 0.22,-3.78c0.09,-1.37 0.18,-2.76 0.27,-4.16c0.09,-1.4 0.18,-2.77 0.31,-5.39c0.06,-1.22 0.1,-2.37 0.1,-3.46c0,-1.04 -0.03,-2.02 -0.13,-2.96c-0.1,-0.9 -0.19,-1.79 -0.77,-3.41c-0.29,-0.8 -0.7,-1.58 -1.2,-2.31c-0.52,-0.75 -1.15,-1.48 -1.91,-2.16c-0.79,-0.72 -1.68,-1.44 -3.92,-2.69c-1.23,-0.69 -2.61,-1.29 -4.06,-1.88c-1.48,-0.6 -3.01,-1.15 -4.56,-1.66c-1.52,-0.5 -3.01,-0.97 -5.84,-1.63c-1.27,-0.3 -2.46,-0.5 -3.56,-0.66c-1.01,-0.14 -1.94,-0.22 -2.79,-0.28l-0.78,-0.04l-0.7,-0.02" fill="none" id="svg_3"/>
 </g>
</svg>